<svg width="189" height="48" viewBox="0 0 189 48" fill="none" xmlns="http://www.w3.org/2000/svg">
<path d="M0.0454545 47V0.454544H18.4091C21.9242 0.454544 24.9242 1.08333 27.4091 2.34091C29.9091 3.58333 31.8106 5.34848 33.1136 7.63636C34.4318 9.90909 35.0909 12.5833 35.0909 15.6591C35.0909 18.75 34.4242 21.4091 33.0909 23.6364C31.7576 25.8485 29.8258 27.5455 27.2955 28.7273C24.7803 29.9091 21.7348 30.5 18.1591 30.5H5.86364V22.5909H16.5682C18.447 22.5909 20.0076 22.3333 21.25 21.8182C22.4924 21.303 23.4167 20.5303 24.0227 19.5C24.6439 18.4697 24.9545 17.1894 24.9545 15.6591C24.9545 14.1136 24.6439 12.8106 24.0227 11.75C23.4167 10.6894 22.4848 9.88636 21.2273 9.34091C19.9848 8.7803 18.4167 8.5 16.5227 8.5H9.88636V47H0.0454545ZM25.1818 25.8182L36.75 47H25.8864L14.5682 25.8182H25.1818ZM57.2102 47.6818C53.6193 47.6818 50.5284 46.9545 47.9375 45.5C45.3617 44.0303 43.3769 41.9545 41.983 39.2727C40.589 36.5758 39.892 33.3864 39.892 29.7045C39.892 26.1136 40.589 22.9621 41.983 20.25C43.3769 17.5379 45.339 15.4242 47.8693 13.9091C50.4148 12.3939 53.3996 11.6364 56.8239 11.6364C59.1269 11.6364 61.2708 12.0076 63.2557 12.75C65.2557 13.4773 66.9981 14.5758 68.483 16.0455C69.983 17.5152 71.1496 19.3636 71.983 21.5909C72.8163 23.803 73.233 26.3939 73.233 29.3636V32.0227H43.7557V26.0227H64.1193C64.1193 24.6288 63.8163 23.3939 63.2102 22.3182C62.6042 21.2424 61.7633 20.4015 60.6875 19.7955C59.6269 19.1742 58.392 18.8636 56.983 18.8636C55.5133 18.8636 54.2102 19.2045 53.0739 19.8864C51.9527 20.553 51.0739 21.4545 50.4375 22.5909C49.8011 23.7121 49.4754 24.9621 49.4602 26.3409V32.0455C49.4602 33.7727 49.7784 35.2652 50.4148 36.5227C51.0663 37.7803 51.983 38.75 53.1648 39.4318C54.3466 40.1136 55.7481 40.4545 57.3693 40.4545C58.4451 40.4545 59.4299 40.303 60.3239 40C61.2178 39.697 61.983 39.2424 62.6193 38.6364C63.2557 38.0303 63.7405 37.2879 64.0739 36.4091L73.0284 37C72.5739 39.1515 71.642 41.0303 70.233 42.6364C68.839 44.2273 67.036 45.4697 64.8239 46.3636C62.6269 47.2424 60.089 47.6818 57.2102 47.6818ZM89.233 26.8182V47H79.5511V12.0909H88.7784V18.25H89.1875C89.9602 16.2197 91.2557 14.6136 93.0739 13.4318C94.892 12.2348 97.0966 11.6364 99.6875 11.6364C102.112 11.6364 104.225 12.1667 106.028 13.2273C107.831 14.2879 109.233 15.803 110.233 17.7727C111.233 19.7273 111.733 22.0606 111.733 24.7727V47H102.051V26.5C102.066 24.3636 101.521 22.697 100.415 21.5C99.3087 20.2879 97.786 19.6818 95.8466 19.6818C94.5436 19.6818 93.392 19.9621 92.392 20.5227C91.4072 21.0833 90.6345 21.9015 90.0739 22.9773C89.5284 24.0379 89.2481 25.3182 89.233 26.8182ZM129.318 47.6591C127.091 47.6591 125.106 47.2727 123.364 46.5C121.621 45.7121 120.242 44.553 119.227 43.0227C118.227 41.4773 117.727 39.553 117.727 37.25C117.727 35.3106 118.083 33.6818 118.795 32.3636C119.508 31.0455 120.477 29.9848 121.705 29.1818C122.932 28.3788 124.326 27.7727 125.886 27.3636C127.462 26.9545 129.114 26.6667 130.841 26.5C132.871 26.2879 134.508 26.0909 135.75 25.9091C136.992 25.7121 137.894 25.4242 138.455 25.0455C139.015 24.6667 139.295 24.1061 139.295 23.3636V23.2273C139.295 21.7879 138.841 20.6742 137.932 19.8864C137.038 19.0985 135.765 18.7045 134.114 18.7045C132.371 18.7045 130.985 19.0909 129.955 19.8636C128.924 20.6212 128.242 21.5758 127.909 22.7273L118.955 22C119.409 19.8788 120.303 18.0455 121.636 16.5C122.97 14.9394 124.689 13.7424 126.795 12.9091C128.917 12.0606 131.371 11.6364 134.159 11.6364C136.098 11.6364 137.955 11.8636 139.727 12.3182C141.515 12.7727 143.098 13.4773 144.477 14.4318C145.871 15.3864 146.97 16.6136 147.773 18.1136C148.576 19.5985 148.977 21.3788 148.977 23.4545V47H139.795V42.1591H139.523C138.962 43.25 138.212 44.2121 137.273 45.0455C136.333 45.8636 135.205 46.5076 133.886 46.9773C132.568 47.4318 131.045 47.6591 129.318 47.6591ZM132.091 40.9773C133.515 40.9773 134.773 40.697 135.864 40.1364C136.955 39.5606 137.811 38.7879 138.432 37.8182C139.053 36.8485 139.364 35.75 139.364 34.5227V30.8182C139.061 31.0152 138.644 31.197 138.114 31.3636C137.598 31.5152 137.015 31.6591 136.364 31.7955C135.712 31.9167 135.061 32.0303 134.409 32.1364C133.758 32.2273 133.167 32.3106 132.636 32.3864C131.5 32.553 130.508 32.8182 129.659 33.1818C128.811 33.5455 128.152 34.0379 127.682 34.6591C127.212 35.2652 126.977 36.0227 126.977 36.9318C126.977 38.25 127.455 39.2576 128.409 39.9545C129.379 40.6364 130.606 40.9773 132.091 40.9773ZM166.17 26.8182V47H156.489V12.0909H165.716V18.25H166.125C166.898 16.2197 168.193 14.6136 170.011 13.4318C171.83 12.2348 174.034 11.6364 176.625 11.6364C179.049 11.6364 181.163 12.1667 182.966 13.2273C184.769 14.2879 186.17 15.803 187.17 17.7727C188.17 19.7273 188.67 22.0606 188.67 24.7727V47H178.989V26.5C179.004 24.3636 178.458 22.697 177.352 21.5C176.246 20.2879 174.723 19.6818 172.784 19.6818C171.481 19.6818 170.33 19.9621 169.33 20.5227C168.345 21.0833 167.572 21.9015 167.011 22.9773C166.466 24.0379 166.186 25.3182 166.17 26.8182Z" fill="black"/>
</svg>
